<svg xmlns="http://www.w3.org/2000/svg" width="1400" height="560" viewBox="0 0 1400 560" role="img" aria-labelledby="title desc">
  <title id="title">d'BiYOK Lab</title>
  <desc id="desc">PagBiOmICs Bring Your Key AI-assisted apps mark for biodiscovery and productivity tools.</desc>
  <defs>
    <linearGradient id="bg" x1="0" x2="1" y1="0" y2="1">
      <stop offset="0" stop-color="#061012"/>
      <stop offset="0.54" stop-color="#102224"/>
      <stop offset="1" stop-color="#171810"/>
    </linearGradient>
    <linearGradient id="accent" x1="0" x2="1" y1="0" y2="1">
      <stop offset="0" stop-color="#66e2c0"/>
      <stop offset="1" stop-color="#f0c86a"/>
    </linearGradient>
  </defs>
  <rect width="1400" height="560" rx="36" fill="url(#bg)"/>
  <g opacity="0.18" fill="none" stroke="#66e2c0" stroke-width="3">
    <path d="M1010 128c88 46 88 120 0 166s-88 120 0 166"/>
    <path d="M1154 128c-88 46-88 120 0 166s88 120 0 166"/>
    <path d="M1034 170h96M1010 246h144M1034 322h96M1010 398h144"/>
  </g>
  <g transform="translate(112 112)">
    <rect width="226" height="226" rx="34" fill="url(#accent)"/>
    <circle cx="184" cy="188" r="62" fill="none" stroke="#07110f" stroke-opacity="0.22" stroke-width="20"/>
    <text x="113" y="128" text-anchor="middle" fill="#07110f" font-family="Inter, Segoe UI, Arial, sans-serif" font-size="74" font-weight="900">dB</text>
    <text x="113" y="178" text-anchor="middle" fill="#07110f" font-family="Inter, Segoe UI, Arial, sans-serif" font-size="42" font-weight="900">YOK</text>
  </g>
  <g transform="translate(392 140)">
    <text font-family="Inter, Segoe UI, Arial, sans-serif" font-size="86" font-weight="900" letter-spacing="0">
      <tspan fill="#f5fbf8">d'</tspan><tspan fill="#66e2c0">Bi</tspan><tspan fill="#f5fbf8">YOK Lab</tspan>
    </text>
    <text y="72" fill="#66e2c0" font-family="Inter, Segoe UI, Arial, sans-serif" font-size="28" font-weight="800">Bring Your Key for AI-assisted Apps</text>
    <text y="136" fill="#a9b9b4" font-family="Inter, Segoe UI, Arial, sans-serif" font-size="30">Practical tools for productivity, biodiscovery, learning, and everyday workflows.</text>
    <g transform="translate(0 196)" fill="none" stroke-width="2">
      <rect width="154" height="46" rx="8" stroke="#66e2c0"/>
      <text x="77" y="31" text-anchor="middle" fill="#66e2c0" font-family="Inter, Segoe UI, Arial, sans-serif" font-size="18" font-weight="800">LOCAL</text>
      <rect x="174" width="154" height="46" rx="8" stroke="#f0c86a"/>
      <text x="251" y="31" text-anchor="middle" fill="#f0c86a" font-family="Inter, Segoe UI, Arial, sans-serif" font-size="18" font-weight="800">BYOK</text>
      <rect x="348" width="190" height="46" rx="8" stroke="#ffffff" stroke-opacity="0.2"/>
      <text x="443" y="31" text-anchor="middle" fill="#f5fbf8" font-family="Inter, Segoe UI, Arial, sans-serif" font-size="18" font-weight="800">EDUCATION</text>
    </g>
  </g>
</svg>
